<svg width="560" height="130" viewBox="0 0 560 130" fill="none" xmlns="http://www.w3.org/2000/svg">
<path d="M166.624 81.152C169.227 81.152 171.467 80.7253 173.344 79.872C175.221 78.976 177.184 77.568 179.232 75.648L184.096 80.64C179.36 85.888 173.6 88.512 166.816 88.512C160.075 88.512 154.464 86.336 149.984 81.984C145.547 77.632 143.328 72.128 143.328 65.472C143.328 58.816 145.589 53.2693 150.112 48.832C154.677 44.3947 160.416 42.176 167.328 42.176C174.283 42.176 180.085 44.736 184.736 49.856L179.936 55.104C177.803 53.056 175.776 51.6267 173.856 50.816C171.979 50.0053 169.76 49.6 167.2 49.6C162.677 49.6 158.88 51.072 155.808 54.016C152.736 56.9173 151.2 60.6507 151.2 65.216C151.2 69.7387 152.715 73.536 155.744 76.608C158.816 79.6373 162.443 81.152 166.624 81.152ZM199.477 88H192.309V53.952H199.477V88ZM192.757 47.168C191.861 46.272 191.413 45.2053 191.413 43.968C191.413 42.7307 191.861 41.664 192.757 40.768C193.653 39.872 194.72 39.424 195.957 39.424C197.194 39.424 198.261 39.872 199.157 40.768C200.053 41.664 200.501 42.7307 200.501 43.968C200.501 45.2053 200.053 46.272 199.157 47.168C198.261 48.064 197.194 48.512 195.957 48.512C194.72 48.512 193.653 48.064 192.757 47.168ZM218.704 59.712V76.992C218.704 78.6133 219.13 79.9147 219.984 80.896C220.837 81.8347 222.032 82.304 223.568 82.304C225.104 82.304 226.576 81.5573 227.984 80.064L230.928 85.12C228.41 87.3813 225.616 88.512 222.544 88.512C219.514 88.512 216.912 87.4667 214.736 85.376C212.602 83.2427 211.536 80.384 211.536 76.8V59.712H207.248V53.952H211.536V43.264H218.704V53.952H227.664V59.712H218.704ZM240.91 101.568C237.795 101.568 234.979 100.437 232.462 98.176L235.726 92.352C237.219 93.76 238.755 94.464 240.334 94.464C241.955 94.464 243.256 93.888 244.238 92.736C245.262 91.584 245.774 90.3253 245.774 88.96C245.774 88.3627 241.187 76.6933 232.014 53.952H239.694L249.87 79.04L260.046 53.952H267.726L251.214 94.4C250.232 96.6187 248.824 98.368 246.99 99.648C245.155 100.928 243.128 101.568 240.91 101.568ZM287.9 49.152C285.724 49.152 283.932 49.6 282.524 50.496C281.116 51.392 280.412 52.7573 280.412 54.592C280.412 56.384 281.116 57.7707 282.524 58.752C283.932 59.6907 286.918 60.7147 291.484 61.824C296.092 62.9333 299.548 64.4907 301.852 66.496C304.198 68.5013 305.372 71.4667 305.372 75.392C305.372 79.2747 303.9 82.432 300.956 84.864C298.012 87.296 294.15 88.512 289.372 88.512C282.374 88.512 276.166 86.1013 270.748 81.28L275.484 75.584C280.006 79.5093 284.7 81.472 289.564 81.472C291.996 81.472 293.916 80.96 295.324 79.936C296.774 78.8693 297.5 77.4827 297.5 75.776C297.5 74.0267 296.817 72.6827 295.452 71.744C294.129 70.7627 291.825 69.888 288.54 69.12C285.254 68.3093 282.758 67.584 281.052 66.944C279.345 66.2613 277.83 65.3867 276.508 64.32C273.862 62.3147 272.54 59.2427 272.54 55.104C272.54 50.9653 274.033 47.7867 277.02 45.568C280.049 43.3067 283.782 42.176 288.22 42.176C291.078 42.176 293.916 42.6453 296.732 43.584C299.548 44.5227 301.98 45.8453 304.028 47.552L299.996 53.248C298.673 52.0533 296.881 51.072 294.62 50.304C292.358 49.536 290.118 49.152 287.9 49.152ZM328.788 88.512C324.052 88.512 319.977 86.912 316.564 83.712C313.151 80.4693 311.444 76.2453 311.444 71.04C311.444 65.8347 313.215 61.6107 316.756 58.368C320.34 55.0827 324.692 53.44 329.812 53.44C334.932 53.44 339.263 55.2107 342.804 58.752L338.58 63.936C335.636 61.376 332.671 60.096 329.684 60.096C326.697 60.096 324.095 61.0987 321.876 63.104C319.7 65.0667 318.612 67.6267 318.612 70.784C318.612 73.8987 319.7 76.544 321.876 78.72C324.052 80.896 326.719 81.984 329.876 81.984C333.076 81.984 336.084 80.5333 338.9 77.632L343.124 82.24C338.985 86.4213 334.207 88.512 328.788 88.512ZM368.415 60.672C364.874 60.672 362.207 61.824 360.415 64.128C358.623 66.432 357.727 69.5253 357.727 73.408V88H350.559V53.952H357.727V60.8C358.879 58.6667 360.436 56.9173 362.399 55.552C364.404 54.1867 366.516 53.4827 368.735 53.44L368.799 60.672C368.671 60.672 368.543 60.672 368.415 60.672ZM403.268 88H396.74V83.456C393.924 86.8267 390.148 88.512 385.412 88.512C381.871 88.512 378.927 87.5093 376.58 85.504C374.276 83.4987 373.124 80.832 373.124 77.504C373.124 74.1333 374.361 71.616 376.836 69.952C379.311 68.288 382.66 67.456 386.884 67.456H396.164V66.176C396.164 61.6533 393.647 59.392 388.612 59.392C385.455 59.392 382.169 60.544 378.756 62.848L375.556 58.368C379.695 55.0827 384.388 53.44 389.636 53.44C393.647 53.44 396.911 54.464 399.428 56.512C401.988 58.5173 403.268 61.696 403.268 66.048V88ZM396.1 75.328V72.448H388.036C382.873 72.448 380.292 74.0693 380.292 77.312C380.292 78.976 380.932 80.256 382.212 81.152C383.492 82.0053 385.263 82.432 387.524 82.432C389.828 82.432 391.833 81.792 393.54 80.512C395.247 79.232 396.1 77.504 396.1 75.328ZM431.487 53.44C436.052 53.44 439.956 55.0187 443.199 58.176C446.441 61.3333 448.062 65.536 448.062 70.784C448.062 76.032 446.441 80.2987 443.199 83.584C439.999 86.8693 436.244 88.512 431.935 88.512C427.668 88.512 423.828 86.6347 420.415 82.88V100.416H413.247V53.952H420.415V59.904C423.231 55.5947 426.921 53.44 431.487 53.44ZM420.287 71.04C420.287 74.2827 421.268 76.9493 423.231 79.04C425.193 81.088 427.583 82.112 430.399 82.112C433.215 82.112 435.668 81.088 437.759 79.04C439.849 76.992 440.895 74.3467 440.895 71.104C440.895 67.8187 439.871 65.1093 437.823 62.976C435.775 60.8 433.321 59.712 430.463 59.712C427.604 59.712 425.193 60.8 423.231 62.976C421.268 65.1093 420.287 67.7973 420.287 71.04ZM474.487 53.44C479.052 53.44 482.956 55.0187 486.199 58.176C489.441 61.3333 491.062 65.536 491.062 70.784C491.062 76.032 489.441 80.2987 486.199 83.584C482.999 86.8693 479.244 88.512 474.935 88.512C470.668 88.512 466.828 86.6347 463.415 82.88V100.416H456.247V53.952H463.415V59.904C466.231 55.5947 469.921 53.44 474.487 53.44ZM463.287 71.04C463.287 74.2827 464.268 76.9493 466.231 79.04C468.193 81.088 470.583 82.112 473.399 82.112C476.215 82.112 478.668 81.088 480.759 79.04C482.849 76.992 483.895 74.3467 483.895 71.104C483.895 67.8187 482.871 65.1093 480.823 62.976C478.775 60.8 476.321 59.712 473.463 59.712C470.604 59.712 468.193 60.8 466.231 62.976C464.268 65.1093 463.287 67.7973 463.287 71.04ZM530.927 74.112H504.239C504.409 76.5867 505.54 78.592 507.631 80.128C509.721 81.6213 512.111 82.368 514.799 82.368C519.065 82.368 522.308 81.024 524.527 78.336L528.623 82.816C524.953 86.6133 520.175 88.512 514.287 88.512C509.508 88.512 505.433 86.9333 502.062 83.776C498.735 80.576 497.071 76.3093 497.071 70.976C497.071 65.6 498.777 61.3333 502.191 58.176C505.604 55.0187 509.615 53.44 514.223 53.44C518.873 53.44 522.82 54.848 526.062 57.664C529.305 60.4373 530.927 64.2773 530.927 69.184V74.112ZM504.239 68.48H523.759C523.759 65.6213 522.863 63.424 521.071 61.888C519.279 60.352 517.06 59.584 514.415 59.584C511.812 59.584 509.465 60.3947 507.375 62.016C505.284 63.5947 504.239 65.7493 504.239 68.48ZM556.665 60.672C553.124 60.672 550.457 61.824 548.665 64.128C546.873 66.432 545.977 69.5253 545.977 73.408V88H538.809V53.952H545.977V60.8C547.129 58.6667 548.686 56.9173 550.649 55.552C552.654 54.1867 554.766 53.4827 556.985 53.44L557.049 60.672C556.921 60.672 556.793 60.672 556.665 60.672Z" fill="black"/>
<path fill-rule="evenodd" clip-rule="evenodd" d="M65 130C100.899 130 130 100.899 130 65C130 29.1015 100.899 0 65 0C29.1015 0 0 29.1015 0 65C0 100.899 29.1015 130 65 130ZM65.296 43.264H57.744V76.672L31.76 43.264H24.208V88H31.76V55.36L57.104 88H65.296V43.264ZM85.836 50.496C87.244 49.6 89.036 49.152 91.212 49.152C93.4307 49.152 95.6707 49.536 97.932 50.304C100.193 51.072 101.985 52.0533 103.308 53.248L107.34 47.552C105.292 45.8453 102.86 44.5227 100.044 43.584C97.228 42.6453 94.3907 42.176 91.532 42.176C87.0947 42.176 83.3613 43.3067 80.332 45.568C77.3453 47.7867 75.852 50.9653 75.852 55.104C75.852 59.2427 77.1747 62.3147 79.82 64.32C81.1427 65.3867 82.6573 66.2613 84.364 66.944C86.0707 67.584 88.5667 68.3093 91.852 69.12C95.1373 69.888 97.4413 70.7627 98.764 71.744C100.129 72.6827 100.812 74.0267 100.812 75.776C100.812 77.4827 100.087 78.8693 98.636 79.936C97.228 80.96 95.308 81.472 92.876 81.472C88.012 81.472 83.3187 79.5093 78.796 75.584L74.06 81.28C79.4787 86.1013 85.6867 88.512 92.684 88.512C97.4627 88.512 101.324 87.296 104.268 84.864C107.212 82.432 108.684 79.2747 108.684 75.392C108.684 71.4667 107.511 68.5013 105.164 66.496C102.86 64.4907 99.404 62.9333 94.796 61.824C90.2307 60.7147 87.244 59.6907 85.836 58.752C84.428 57.7707 83.724 56.384 83.724 54.592C83.724 52.7573 84.428 51.392 85.836 50.496Z" fill="#FF6F59"/>
</svg>
